# xmcd
#
# Track frame offsets:
#   150
#   21204
#   37219
#   51314
#   79268
#   102632
#   127228
#   149064
#   166787
#   181632
#   194677
#   209732
#   228717
#   248991
#   267014
#   283750
#   301413
#   313288
#   333621
#
# Disc length: 4733 seconds
#
# Revision: 0
# Processed by: cddbd v1.5.1PL0 Copyright (c) Steve Scherf et al.
# Submitted via: uFREEDB ActiveX Control 1.5
#
DISCID=37127b13
DTITLE=Revelação - Ao Vivo no Olimpo
DYEAR=1900
DGENRE=Pagode
TTITLE0=Sambas de Roda da Bahia (Olha lá o Samba Sinhá) Va
TTITLE1=Esqueci de Te Esquecer
TTITLE2=Meu Oceano
TTITLE3=Virou Religião (Poder de Sedução) Se Você Me Chama
TTITLE4=Eu Te Devoro
TTITLE5=Talvez
TTITLE6=Vacilão
TTITLE7=Essência da Paixão
TTITLE8=Altas Horas
TTITLE9=Preciso Te Amar
TTITLE10=Grades do Amor
TTITLE11=Coração Radiante
TTITLE12=Deixa Acontecer
TTITLE13=Conselho
TTITLE14=Insensato Destino
TTITLE15=Zé da Caroça (Na Palma da Mão) Rap do Simpático
TTITLE16=Batucada
TTITLE17=Samba Arerê
TTITLE18=Dora
EXTD=
EXTT0=
EXTT1=
EXTT2=
EXTT3=
EXTT4=
EXTT5=
EXTT6=
EXTT7=
EXTT8=
EXTT9=
EXTT10=
EXTT11=
EXTT12=
EXTT13=
EXTT14=
EXTT15=
EXTT16=
EXTT17=
EXTT18=
PLAYORDER=
